<svg width="69" height="69" viewBox="0 0 69 69" fill="none" xmlns="http://www.w3.org/2000/svg">
<path d="M36.6991 40.5132H48.7218C49.9801 40.5132 51 41.5386 51 42.8035V65.7097C51 66.9746 49.9801 68 48.7218 68H35.0505C33.7923 68 32.7723 66.9746 32.7723 65.7097V57.148M32.7723 53.486V44.2045M21.0317 31.6481L23.4535 28.8891C25.1926 26.9074 28.2347 26.8122 30.0934 28.6809L36.1225 34.742C37.9813 36.6106 37.8855 39.6678 35.9154 41.4162L27.4624 48.9138C26.5601 49.7142 25.1946 49.6713 24.3444 48.8155L16.0933 40.5216C15.242 39.6658 15.1993 38.293 15.9955 37.3859L18.6223 34.3936M16.444 53.3218L22.6354 47.0985L17.8022 42.2396L13.4155 46.6497C13.2787 46.7869 13.179 46.9569 13.1256 47.1436C13.0723 47.3303 13.0671 47.5276 13.1105 47.7169L13.3103 48.5853C13.3978 48.9703 13.2833 49.3731 13.0054 49.6525L12.2873 50.3744C12.1508 50.5119 11.9817 50.6122 11.796 50.6658C11.6102 50.7194 11.414 50.7246 11.2257 50.681L10.3619 50.4801C9.97891 50.3911 9.57718 50.5073 9.2993 50.7866L7.77564 52.3184C7.63924 52.4559 7.5398 52.6259 7.48665 52.8126C7.43349 52.9992 7.42837 53.1964 7.47174 53.3856L7.67053 54.254C7.75899 54.639 7.64451 55.0419 7.36663 55.3212L5.84297 56.853C5.70641 56.9904 5.53733 57.0906 5.35162 57.1442C5.16592 57.1979 4.96969 57.2031 4.78141 57.1595L3.91655 56.9586C3.53459 56.8707 3.13286 56.9858 2.85498 57.2652L1.936 58.1891C1.77573 58.3502 1.66749 58.5552 1.62378 58.7781L1.02119 61.8667C0.948333 62.2413 1.06594 62.6274 1.33445 62.8963L2.08691 63.6538C2.21909 63.7866 2.38172 63.8847 2.56049 63.9394C2.73926 63.9941 2.92867 64.0038 3.11205 63.9676L6.1833 63.3619C6.40498 63.319 6.61 63.2091 6.76924 63.048L13.8682 55.9113M20.2186 44.6686L16.3518 48.5559M30.5298 34.3026L38.1417 26.6504M41.8861 27.8554V44.1779M41.8861 47.6138C40.9423 47.6138 40.1772 46.8447 40.1772 45.8958C40.1772 44.947 40.9422 44.1778 41.8861 44.1778C42.8299 44.1778 43.595 44.9469 43.595 45.8958C43.595 46.8446 42.8299 47.6138 41.8861 47.6138ZM36.4178 56.4326V52.6531C36.4178 51.894 37.0298 51.2787 37.7849 51.2787H45.9874C46.7425 51.2787 47.3546 51.894 47.3546 52.6531V56.4326C47.3546 57.1916 46.7425 57.807 45.9874 57.807H37.7849C37.0298 57.8068 36.4178 57.1915 36.4178 56.4326ZM36.4178 62.9607V59.1812C36.4178 58.4222 37.0298 57.8068 37.7849 57.8068H45.9874C46.7425 57.8068 47.3546 58.4222 47.3546 59.1812V62.9607C47.3546 63.7198 46.7425 64.3351 45.9874 64.3351H37.7849C37.0298 64.3351 36.4178 63.7198 36.4178 62.9607ZM48.7356 22.886C48.7356 26.689 45.669 29.7719 41.8861 29.7719C38.1031 29.7719 35.0365 26.689 35.0365 22.886C35.0365 19.083 38.1031 16 41.8861 16C45.669 16 48.7356 19.083 48.7356 22.886ZM32.8659 39.2426C32.154 39.9583 30.9999 39.9583 30.2881 39.2426L25.6158 34.5456C24.904 33.8299 24.904 32.6697 25.6158 31.9541C26.3277 31.2384 27.4818 31.2384 28.1937 31.9541L32.8659 36.6511C33.5778 37.3668 33.5778 38.527 32.8659 39.2426Z" stroke="#1F1F1F" stroke-width="2" stroke-miterlimit="10" stroke-linecap="round" stroke-linejoin="round"/>
<circle cx="57" cy="12" r="12" fill="url(#paint0_linear_1_1758)"/>
<path opacity="0.8" d="M52.9032 10.412C52.9472 9.89133 53.1342 9.41833 53.4642 8.993C53.7942 8.56033 54.2709 8.21567 54.8942 7.959C55.5176 7.70233 56.2766 7.574 57.1712 7.574C57.9339 7.574 58.5976 7.66933 59.1622 7.86C59.7342 8.05067 60.1742 8.31833 60.4822 8.663C60.7976 9.00767 60.9552 9.41467 60.9552 9.884C60.9552 10.2507 60.8416 10.588 60.6142 10.896C60.3942 11.204 60.0422 11.4497 59.5582 11.633C59.0816 11.809 58.4582 11.8933 57.6882 11.886V11.655C58.4069 11.6257 59.0229 11.677 59.5362 11.809C60.0496 11.941 60.4419 12.1573 60.7132 12.458C60.9919 12.7587 61.1312 13.14 61.1312 13.602C61.1312 14.1007 60.9699 14.5443 60.6472 14.933C60.3246 15.3217 59.8552 15.626 59.2392 15.846C58.6306 16.066 57.8826 16.176 56.9952 16.176C56.1372 16.176 55.3892 16.0587 54.7512 15.824C54.1132 15.5893 53.6146 15.2557 53.2552 14.823C52.9032 14.383 52.7162 13.8697 52.6942 13.283H54.9602C55.0189 13.6497 55.2096 13.932 55.5322 14.13C55.8622 14.328 56.3499 14.427 56.9952 14.427C57.5819 14.427 58.0292 14.339 58.3372 14.163C58.6526 13.987 58.8102 13.7413 58.8102 13.426C58.8102 13.2427 58.7589 13.0887 58.6562 12.964C58.5609 12.8393 58.3886 12.7477 58.1392 12.689C57.8899 12.623 57.5416 12.59 57.0942 12.59H55.6752V11.05H57.0942C57.6736 11.05 58.0769 10.973 58.3042 10.819C58.5389 10.665 58.6562 10.4597 58.6562 10.203C58.6562 9.92433 58.5206 9.708 58.2492 9.554C57.9852 9.4 57.5856 9.323 57.0502 9.323C56.4782 9.323 56.0382 9.41833 55.7302 9.609C55.4222 9.79967 55.2389 10.0673 55.1802 10.412H52.9032Z" fill="white"/>
<defs>
<linearGradient id="paint0_linear_1_1758" x1="45" y1="16.5" x2="69" y2="6.5" gradientUnits="userSpaceOnUse">
<stop stop-color="#9F7437"/>
<stop offset="1" stop-color="#E3D293"/>
</linearGradient>
</defs>
</svg>
